<svg xmlns="http://www.w3.org/2000/svg" width="109.124" height="18"><g data-name="Group 2829"><path data-name="Path 2690" d="M0 .652l2.072.026C3.814.699 5.563.627 7.296.763a5.2 5.2 0 014.8 4.161 5.222 5.222 0 01-4.423 6.484 21.662 21.662 0 01-3.422.117c-.393 0-.486.124-.482.5.019 1.7.008 3.406.008 5.109v.534H0zm3.832 7.669c.47 0 .9.017 1.318 0a10.449 10.449 0 001.781-.153 1.944 1.944 0 001.527-1.95 1.974 1.974 0 00-1.293-2.04 10.748 10.748 0 00-3.332-.229z" fill="#0d1136"/><path data-name="Path 2691" d="M109.124 9.36a4.269 4.269 0 00-2.013-.019 2.521 2.521 0 00-1.9 2.431c-.069 1.741-.047 3.485-.063 5.227v.627h-3.581V5.804h3.466v1.425a3.266 3.266 0 012.349-1.477 10.946 10.946 0 011.74.013z" fill="#008d71"/><path data-name="Path 2692" d="M48.823.678h.516c2.236.02 4.478-.064 6.7.089a4.412 4.412 0 014.283 3.585 3.876 3.876 0 01-2.182 4.425.4.4 0 00-.089.06 11.028 11.028 0 011.515.929 4.339 4.339 0 01.764 5.431 4.761 4.761 0 01-4.195 2.425c-2.393.084-4.791.027-7.187.03a.546.546 0 01-.13-.038zm3.663 13.9h2.1a7.083 7.083 0 00.8-.033 1.932 1.932 0 001.81-1.8 1.816 1.816 0 00-1.406-2c-1.078-.164-2.184-.155-3.305-.222zm0-7.1c.759 0 1.488.019 2.216-.009a3.119 3.119 0 00.93-.193 1.65 1.65 0 001.092-1.685 1.567 1.567 0 00-1.21-1.634c-.987-.16-2-.159-3.028-.229z" fill="#008d71"/><path data-name="Path 2693" d="M38.458 9.686c.848-.935 1.761-1.82 2.525-2.819a2.548 2.548 0 012.5-1.114c1.025.1 2.066.021 3.208.021l-4.634 4.982 4.734 6.9c-1.3 0-2.519-.03-3.737.014a1.069 1.069 0 01-1.08-.577c-.764-1.214-1.583-2.393-2.416-3.639-.4.436-.781.836-1.138 1.258-.071.084-.058.252-.059.382v2.536h-3.567V.358h3.554v9.3z" fill="#0d1136"/><path data-name="Path 2694" d="M73.493 17.644h-3.195l-.126-1.174a12.43 12.43 0 01-1.185.968c-1.41.9-4.459.873-5.757-1.235a3.445 3.445 0 012.329-5.228c1.069-.258 2.171-.384 3.257-.57.092-.016.183-.033.275-.047a.809.809 0 00.771-.587 1.018 1.018 0 00-.295-1.023 2.073 2.073 0 00-2.085-.428 1.811 1.811 0 00-1.338 1.345c-.016.05-.013.106-.026.157a1.142 1.142 0 01-.063.143l-1.547-.3c-.517-.1-1.011-.209-1.546-.321a3.69 3.69 0 01.859-2.075 4.789 4.789 0 012.823-1.678 7.23 7.23 0 014.122.264 3.9 3.9 0 012.629 3.781c.059 1.648.01 3.3.024 4.95.01 1.007.048 2.016.074 3.058zm-3.61-5.176c-.423.063-.82.1-1.207.185a14.688 14.688 0 00-1.837.468c-.449.161-.557.6-.548 1.059a1.131 1.131 0 00.585 1.021 2.235 2.235 0 002.658-.719 3.178 3.178 0 00.349-2.013z" fill="#008d71"/><path data-name="Path 2695" d="M98.509 17.639h-3.2l-.125-1.228a.862.862 0 00-.154.129c-1.345 1.934-4.918 1.869-6.417.158a3.423 3.423 0 011.457-5.554 29.724 29.724 0 013.236-.656c.274-.053.553-.081.826-.138a.888.888 0 00.49-1.563 2.026 2.026 0 00-2.031-.486 1.8 1.8 0 00-1.411 1.316c-.034.1-.05.2-.086.359l-3.123-.629a3.931 3.931 0 011.954-3.035 6.527 6.527 0 016.343-.224A3.675 3.675 0 0198.4 9.497c.064 1.581.021 3.167.037 4.751.016 1.112.048 2.23.072 3.391zm-3.545-5.182c-.8.125-1.5.213-2.187.349a3.561 3.561 0 00-.966.34 1.047 1.047 0 00-.5 1.092 1.114 1.114 0 00.635.99 2.1 2.1 0 002.853-1.3 10.782 10.782 0 00.165-1.468z" fill="#008d71"/><path data-name="Path 2696" d="M32.367 9.544l-3.058.918a7.023 7.023 0 00-1.007-1.227 2.653 2.653 0 00-4.147 1.578 4.649 4.649 0 00-.006 1.773 2.561 2.561 0 002.222 2.052 2.5 2.5 0 002.83-1.444c.053-.1.243-.226.33-.2.969.276 1.931.579 2.956.894a7.773 7.773 0 01-.28.792A5.576 5.576 0 0126.954 18a6.287 6.287 0 11-.163-12.569 5.753 5.753 0 014.638 2.085 4.625 4.625 0 01.938 2.028z" fill="#0d1136"/><path data-name="Path 2697" d="M75.947 5.792h9.674c.006.126.018.252.018.379 0 .639-.038 1.281.013 1.916a1.424 1.424 0 01-.483 1.185c-1.572 1.627-3.123 3.274-4.681 4.914-.088.093-.169.192-.307.351H85.7v3.1h-9.9c-.01-.15-.026-.291-.026-.432 0-.732.022-1.465-.01-2.2a1.241 1.241 0 01.4-.983c1.526-1.6 3.036-3.209 4.551-4.817.08-.085.155-.175.279-.317h-5.053z" fill="#008d71"/><path data-name="Path 2698" d="M14.485 17.626V5.805h3.567v11.821z" fill="#0d1136"/><path data-name="Path 2699" d="M18.386 2.138a2.1 2.1 0 01-2.148 2.1 2.139 2.139 0 01-2.078-2.14A2.141 2.141 0 0116.286.005a2.082 2.082 0 012.1 2.133z" fill="#008d71"/></g></svg>